<?xml version="1.0"?>
<svg version="1.1" xmlns="http://www.w3.org/2000/svg" width="400px" height="200px" style="border: dashed 2px #aaa"><path fill="#ffffff" d="M45.844,97.2l-8.792,0l-1.736,0l0,19.684l1.736,0l0-9.856l8.792,0q2.128,0,3.528-1.4t1.4-3.5q0-1.904-1.4-3.388q-1.484-1.54-3.528-1.54z M45.844,105.292l-8.792,0l0-6.356l8.792,0q1.288,0,2.268,0.924q0.924,0.98,0.924,2.268q0,1.316-0.924,2.24q-0.98,0.924-2.268,0.924z M62.66752,106.972l2.1,0q2.128,0,3.528-1.4t1.4-3.528q0-1.876-1.4-3.36q-1.484-1.54-3.528-1.54l-8.764,0l-1.736,0l0,19.656l1.736,0l0-9.828l4.564,0l5.964,9.828l2.1,0z M56.00352,105.236l0-6.328l8.764,0q1.288,0,2.268,0.924q0.924,0.924,0.924,2.212q0,1.344-0.924,2.268q-0.98,0.924-2.268,0.924l-8.764,0z M81.11504,97.088q-3.136,0-5.264,2.268q-2.1,2.24-2.1,5.46l0,11.984l1.764,0l0-8.792l11.256,0l0,8.792l1.764,0l0-11.984q0-3.22-2.1-5.46q-2.184-2.268-5.32-2.268z M86.77104,106.272l-11.256,0l0-1.456q0-2.408,1.624-4.172q1.652-1.792,3.976-1.792t4.032,1.792q1.624,1.764,1.624,4.172l0,1.456z M105.21856,97.116l-1.792,0l0,13.02q0,2.1-1.4,3.5t-3.5,1.4t-3.5-1.4q-1.428-1.372-1.428-3.5l0-3.164l-1.736,0l0,3.164q0,2.828,2.016,4.76q1.988,1.904,4.648,1.904q2.912,0,4.816-1.904q1.876-1.876,1.876-4.76l0-13.02z M121.90208,97.116l-1.792,0l0,13.02q0,2.1-1.4,3.5t-3.5,1.4t-3.5-1.4q-1.428-1.372-1.428-3.5l0-3.164l-1.736,0l0,3.164q0,2.828,2.016,4.76q1.988,1.904,4.648,1.904q2.912,0,4.816-1.904q1.876-1.876,1.876-4.76l0-13.02z M155.2736,97.2l-1.764,0l0,11.9q0,2.352-1.792,4.144t-4.144,1.792t-4.144-1.792t-1.792-4.144l0-11.9l-1.764,0l0,11.9q0,2.352-1.792,4.144q-1.848,1.792-4.172,1.792q-2.352,0-4.144-1.792t-1.792-4.144l0-11.9l-1.764,0l0,11.9q0,3.108,2.296,5.404t5.404,2.296q2.128,0,4.004-1.176q1.848-1.148,2.66-2.996q1.008,1.792,2.968,2.996q1.904,1.176,4.032,1.176q3.136,0,5.432-2.296q2.268-2.268,2.268-5.404l0-11.9z M166.94512,97.088q-3.136,0-5.264,2.268q-2.1,2.24-2.1,5.46l0,11.984l1.764,0l0-8.792l11.256,0l0,8.792l1.764,0l0-11.984q0-3.22-2.1-5.46q-2.184-2.268-5.32-2.268z M172.60112,106.272l-11.256,0l0-1.456q0-2.408,1.624-4.172q1.652-1.792,3.976-1.792t4.032,1.792q1.624,1.764,1.624,4.172l0,1.456z M178.75664,116.856l13.692,0l0-1.428l-11.956,0l0-18.228l-1.736,0l0,19.656z"/><path fill="#" d=""/></svg>
